<?xml version="1.0" encoding="UTF-8"?>
<svg width="79.375mm" height="56.337mm" version="1.1" viewBox="0 0 79.375 56.337" preserveAspectRatio="none" xmlns="http://www.w3.org/2000/svg" xmlns:cc="http://creativecommons.org/ns#" xmlns:dc="http://purl.org/dc/elements/1.1/" xmlns:rdf="http://www.w3.org/1999/02/22-rdf-syntax-ns#">
 <metadata>
  <rdf:RDF>
   <cc:Work rdf:about="">
    <dc:format>image/svg+xml</dc:format>
    <dc:type rdf:resource="http://purl.org/dc/dcmitype/StillImage"/>
    <dc:title/>
   </cc:Work>
  </rdf:RDF>
 </metadata>
 <g transform="translate(59.808 -141.91)">
  <g transform="matrix(.47869 .00016922 -.00017036 .47549 53.058 322.85)" opacity=".25">
   <g fill="#e2ecf2" opacity="1" stroke-width=".99981">
    <path d="m-235.91-380.44 4.9276-2e-3 24.204 20.735-29.131-17.347z" opacity="1"/>
    <path d="m-223.64-380.45 38.689 33.709-44.618-33.707z" opacity="1"/>
    <path d="m-214.62-380.45 17.847 19.441-24.736-19.439z" opacity="1"/>
    <path d="m-208.54-380.45 13.156 15.485-16.361-15.497z" opacity="1"/>
    <path d="m-203.19-380.46 5.6072 7.8381-7.491-7.8375z" opacity="1"/>
    <path d="m-194.93-380.46 21.229 31.901-25.777-31.899z" opacity="1"/>
    <path d="m-189.35-380.46 1.5534 3.5104-2.6538-3.51z" opacity="1"/>
    <path d="m-184.63-380.46 12.132 23.423-14.042-23.423z" opacity="1"/>
    <path d="m-235.91-375.05 55.14 37.713-55.138-29.45z" opacity="1"/>
    <path d="m-235.91-365.26 34.415 20.382-34.413-15.22z" opacity="1"/>
    <path d="m-235.91-359.11 26.787 13.581-26.786-10.55z" opacity="1"/>
    <path d="m-235.9-353.9 38.063 16.899-38.061-11.311z" opacity="1"/>
    <path d="m-235.9-346.79 44.264 14.229-44.263-11.201z" opacity="1"/>
    <path d="m-235.9-341.91 18.093 5.7242-18.092-2.6978z" opacity="1"/>
    <path d="m-235.9-335.83 50.486 10.165-50.484-5.0285z" opacity="1"/>
    <path d="m-235.89-328.46 13.947 2.2035-13.946 0.19852z" opacity="1"/>
    <path d="m-235.89-324.01 22.767 1.8956-22.766 0.50639z" opacity="1"/>
    <path d="m-235.89-319.72 24.965 1.4492-24.963 2.7292z" opacity="1"/>
    <path d="m-235.89-313.54 43.963-3.2269-43.963 5.7649z" opacity="1"/>
    <path d="m-235.89-308.56 18.028-1.8785-18.027 4.4164z" opacity="1"/>
    <path d="m-235.89-303.18 51.243-9.58-51.241 15.118z" opacity="1"/>
    <path d="m-235.88-295.31 31.889-8.1333-31.887 12.188z" opacity="1"/>
    <path d="m-235.88-289.85 26.538-8.9579-26.537 11.61z" opacity="1"/>
    <path d="m-235.88-285.36 39.292-14.726-39.29 20.639z" opacity="1"/>
    <path d="m-235.88-277.97 46.86-23.458-46.859 27.388z" opacity="1"/>
    <path d="m-235.87-272.52 27.505-13.842-27.503 19.522z" opacity="1"/>
    <path d="m-235.87-265.06 57.392-36.745-48.111 39.874-9.2802 3e-3z" opacity="1"/>
    <path d="m-224.03-261.93 18.82-13.761-13.434 13.759z" opacity="1"/>
    <path d="m-216.09-261.93 19.946-17.636-16.504 17.635z" opacity="1"/>
    <path d="m-209.6-261.93 17.458-16.048-12.484 16.046z" opacity="1"/>
    <path d="m-201.84-261.93 24.798-29.185-21.803 29.184z" opacity="1"/>
    <path d="m-196.21-261.94 4.8824-5.4468-3.1626 5.4461z" opacity="1"/>
    <path d="m-189.9-261.94 20.815-31.125-17.158 31.124z" opacity="1"/>
    <path d="m-182.53-261.94 6.0811-10.747-4.4131 10.746z" opacity="1"/>
    <path d="m-178.96-261.94 1.9572-3.8749-1.1217 3.8746z" opacity="1"/>
    <path d="m-174.55-261.94 6.0647-14.214-4.208 14.213z" opacity="1"/>
    <path d="m-170.67-261.95 6.8971-21.769-5.6801 21.769z" opacity="1"/>
    <path d="m-162.49-261.95 4.9697-26.03-2.5298 26.029z" opacity="1"/>
    <path d="m-146.95-261.95-1.7497-20.643 2.8906 20.642z" opacity="1"/>
    <path d="m-138.73-261.96-5.733-27.55 7.9211 27.549z" opacity="1"/>
    <path d="m-133.13-261.96-2.0859-8.342 3.2982 8.3416z" opacity="1"/>
    <path d="m-130.15-261.96-0.82606-3.7855 1.8114 3.7852z" opacity="1"/>
    <path d="m-125.65-261.96-6.2298-15.704 8.4179 15.703z" opacity="1"/>
    <path d="m-121.35-261.96-12.325-24.101 14.513 24.1z" opacity="1"/>
    <path d="m-116.34-261.97-1.6743-3.453 2.4901 3.4527z" opacity="1"/>
    <path d="m-110.89-261.97-21.79-32.683 26.572 32.681z" opacity="1"/>
    <path d="m-102.63-261.97-5.3918-7.4968 7.4248 7.4961z" opacity="1"/>
    <path d="m-97.592-261.97-13.583-16.169 16.663 16.168z" opacity="1"/>
    <path d="m-91.285-261.97-18.001-19.583 25.359 19.581z" opacity="1"/>
    <path d="m-81.703-261.98-41.64-35.361 47.138 35.359z" opacity="1"/>
    <path d="m-74.544-261.98-25.077-21.41 29.565 18.085 0.0012 3.3242z" opacity="1"/>
    <path d="m-70.057-266.73-54.731-38.376 54.728 29.575z" opacity="1"/>
    <path d="m-70.06-277.27-34.117-20.441 34.116 15.398z" opacity="1"/>
    <path d="m-70.063-283.62-27.521-13.644 27.52 10.758z" opacity="1"/>
    <path d="m-70.064-288.78-37.322-16.703 37.32 11.613z" opacity="1"/>
    <path d="m-70.067-295.55-45.578-14.732 45.577 11.663z" opacity="1"/>
    <path d="m-70.069-300.73-17.741-5.3708 17.74 2.7212z" opacity="1"/>
    <path d="m-70.071-306.37-50.275-10.559 50.273 5.2121z" opacity="1"/>
    <path d="m-70.074-314.38-13.478-1.8873 13.477-0.21435z" opacity="1"/>
    <path d="m-70.075-318.49-22.859-1.6862 22.858-0.41544z" opacity="1"/>
    <path d="m-70.077-323.29-24.666-0.63157 24.664-2.9008z" opacity="1"/>
    <path d="m-70.079-328.95-43.662 3.5014 43.661-5.9166z" opacity="1"/>
    <path d="m-70.08-333.58-17.345 1.3686 17.344-3.7838z" opacity="1"/>
    <path d="m-70.082-339.03-50.206 9.2551 50.203-15.296z" opacity="1"/>
    <path d="m-70.085-347.09-31.189 7.9184 31.188-11.801z" opacity="1"/>
    <path d="m-70.087-352.14-25.366 8.3238 25.365-10.893z" opacity="1"/>
    <path d="m-70.089-357.32-38.511 14.856 38.509-21.158z" opacity="1"/>
    <path d="m-70.092-364.85-46.214 23.357 46.213-27.33z" opacity="1"/>
    <path d="m-70.093-370.13-27.268 14.094 27.266-19.851z" opacity="1"/>
    <path d="m-70.096-377.4-56.37 35.933 47.367-39.038 9.0016-3e-3z" opacity="1"/>
    <path d="m-180.33-380.46 6.3313 15.77-8.2415-15.769z" opacity="1"/>
    <path d="m-175.89-380.47 0.97774 3.2899-1.699-3.2897z" opacity="1"/>
    <path d="m-172.9-380.47 2.0662 7.8102-3.0616-7.8099z" opacity="1"/>
    <path d="m-166.93-380.47 5.4004 26.952-7.9846-26.952z" opacity="1"/>
    <path d="m-159.01-380.47 1.8288 20.605-2.8691-20.605z" opacity="1"/>
    <path d="m-143.51-380.48-4.92 27.352 2.7732-27.351z" opacity="1"/>
    <path d="m-135.21-380.48-6.3089 20.217 5.1251-20.216z" opacity="1"/>
    <path d="m-131.2-380.48-6.0724 14.156 4.4172-14.155z" opacity="1"/>
    <path d="m-126.74-380.48-2.1201 3.994 1.4624-3.9938z" opacity="1"/>
    <path d="m-123.56-380.48-5.6352 10.414 4.6607-10.413z" opacity="1"/>
    <path d="m-116.09-380.49-20.239 30.674 16.637-30.672z" opacity="1"/>
    <path d="m-110.08-380.49-4.527 5.5438 3.2062-5.5434z" opacity="1"/>
    <path d="m-103.85-380.49-23.619 27.449 20.624-27.448z" opacity="1"/>
    <path d="m-96.393-380.49-16.295 14.916 11.601-14.914z" opacity="1"/>
    <path d="m-89.77-380.5-18.856 16.473 15.671-16.471z" opacity="1"/>
    <path d="m-81.441-380.5-19.535 14.29 13.825-14.288z" opacity="1"/>
   </g>
  </g>
 </g>
</svg>